<svg width="882" height="182" viewBox="0 0 882 182" fill="none" xmlns="http://www.w3.org/2000/svg">
<path d="M23.4609 100.824H0.121094C0.38151 98.4805 1 96.2995 1.97656 94.2812C3.01823 92.263 4.28776 90.5052 5.78516 89.0078C7.34766 87.5104 9.10547 86.3385 11.0586 85.4922C13.0117 84.5807 15.0625 84.125 17.2109 84.125H23.4609V7.95312H46.7031V84.125H99.3398V7.95312H122.777V156H99.3398V100.824H46.7031V156H23.4609V100.824Z" fill="#F95070"/>
<path d="M160.961 103.949C161.156 101.671 161.742 99.457 162.719 97.3086C163.76 95.0951 165.03 93.1419 166.527 91.4492C168.09 89.7565 169.848 88.3893 171.801 87.3477C173.754 86.306 175.837 85.7852 178.051 85.7852H244.359C244.099 88.0638 243.448 90.3099 242.406 92.5234C241.43 94.6719 240.16 96.5924 238.598 98.2852C237.1 99.9779 235.375 101.345 233.422 102.387C231.469 103.428 229.418 103.949 227.27 103.949H160.961ZM281.859 100.922C282.055 98.7734 282.608 96.7552 283.52 94.8672C284.431 92.9141 285.603 91.2539 287.035 89.8867C288.533 88.4544 290.193 87.3151 292.016 86.4688C293.904 85.6224 295.889 85.1992 297.973 85.1992H329.613V24.5547H266.43C266.69 22.276 267.309 20.1276 268.285 18.1094C269.327 16.0911 270.596 14.3333 272.094 12.8359C273.656 11.3385 275.414 10.1667 277.367 9.32031C279.32 8.40885 281.371 7.95312 283.52 7.95312H352.465V85.1992H372.387L372.484 100.922H352.465V157.074C352.465 160.46 351.944 163.65 350.902 166.645C349.861 169.639 348.461 172.243 346.703 174.457C344.945 176.671 342.927 178.396 340.648 179.633C338.37 180.935 335.993 181.586 333.52 181.586H329.613V100.922H281.859ZM399.242 78.5586C399.242 75.1081 399.73 71.8854 400.707 68.8906C401.684 65.8307 402.986 63.194 404.613 60.9805C406.306 58.7018 408.259 56.944 410.473 55.707C412.686 54.4049 415.062 53.7539 417.602 53.7539H499.438C499.177 56.0326 498.526 58.2135 497.484 60.2969C496.508 62.3151 495.238 64.0729 493.676 65.5703C492.178 67.0677 490.453 68.2721 488.5 69.1836C486.547 70.0299 484.496 70.4531 482.348 70.4531H476.195C477.432 71.3646 478.637 72.5365 479.809 73.9688C481.046 75.401 482.12 77.0612 483.031 78.9492C484.008 80.8372 484.757 82.9206 485.277 85.1992C485.863 87.4128 486.156 89.8216 486.156 92.4258V131.391C486.156 134.776 485.668 137.966 484.691 140.961C483.715 143.956 482.38 146.56 480.688 148.773C478.995 150.987 477.009 152.745 474.73 154.047C472.517 155.349 470.141 156 467.602 156H417.602C415.062 156 412.686 155.349 410.473 154.047C408.259 152.745 406.306 150.987 404.613 148.773C402.986 146.56 401.684 143.956 400.707 140.961C399.73 137.966 399.242 134.776 399.242 131.391V78.5586ZM462.816 139.301V70.4531H422.582V139.301H462.816ZM523.852 78.5586C523.852 75.1081 524.34 71.8854 525.316 68.8906C526.293 65.8307 527.595 63.194 529.223 60.9805C530.915 58.7018 532.868 56.944 535.082 55.707C537.296 54.4049 539.672 53.7539 542.211 53.7539H624.047C623.786 56.0326 623.135 58.2135 622.094 60.2969C621.117 62.3151 619.848 64.0729 618.285 65.5703C616.788 67.0677 615.062 68.2721 613.109 69.1836C611.156 70.0299 609.105 70.4531 606.957 70.4531H600.805C602.042 71.3646 603.246 72.5365 604.418 73.9688C605.655 75.401 606.729 77.0612 607.641 78.9492C608.617 80.8372 609.366 82.9206 609.887 85.1992C610.473 87.4128 610.766 89.8216 610.766 92.4258V131.391C610.766 134.776 610.277 137.966 609.301 140.961C608.324 143.956 606.99 146.56 605.297 148.773C603.604 150.987 601.618 152.745 599.34 154.047C597.126 155.349 594.75 156 592.211 156H542.211C539.672 156 537.296 155.349 535.082 154.047C532.868 152.745 530.915 150.987 529.223 148.773C527.595 146.56 526.293 143.956 525.316 140.961C524.34 137.966 523.852 134.776 523.852 131.391V78.5586ZM587.426 139.301V70.4531H547.191V139.301H587.426ZM648.461 78.5586C648.461 75.1081 648.949 71.8854 649.926 68.8906C650.902 65.8958 652.204 63.2917 653.832 61.0781C655.525 58.7995 657.51 57.0091 659.789 55.707C662.068 54.4049 664.477 53.7539 667.016 53.7539H712.133V0.726562H735.375V139.301H753.93C753.669 141.579 753.018 143.76 751.977 145.844C751 147.862 749.73 149.62 748.168 151.117C746.671 152.615 744.945 153.819 742.992 154.73C741.039 155.577 738.988 156 736.84 156H712.133V145.355C710.375 148.676 708.129 151.28 705.395 153.168C702.66 155.056 699.763 156 696.703 156H667.016C664.477 156 662.068 155.349 659.789 154.047C657.51 152.745 655.525 150.987 653.832 148.773C652.204 146.495 650.902 143.858 649.926 140.863C648.949 137.868 648.461 134.646 648.461 131.195V78.5586ZM712.133 139.301V70.4531H671.703V139.301H712.133ZM803.051 47.8945H826.488C825.902 49.3268 825.447 50.7591 825.121 52.1914C824.861 53.5586 824.665 54.6979 824.535 55.6094C824.34 58.0182 824.73 60.1992 825.707 62.1523C826.684 64.1055 827.986 65.9935 829.613 67.8164C831.306 69.5742 833.227 71.332 835.375 73.0898C837.589 74.8477 839.835 76.7031 842.113 78.6562C844.717 80.7396 847.354 83.1484 850.023 85.8828C852.693 88.5521 855.102 91.5143 857.25 94.7695C859.398 97.9596 861.124 101.378 862.426 105.023C863.793 108.604 864.411 112.348 864.281 116.254C864.151 118.988 863.565 121.625 862.523 124.164C861.482 126.638 860.115 128.884 858.422 130.902C856.729 132.855 854.743 134.548 852.465 135.98C850.251 137.413 847.908 138.454 845.434 139.105H881.762C880.85 141.645 879.743 143.956 878.441 146.039C877.204 148.057 875.772 149.815 874.145 151.312C872.582 152.81 870.857 153.982 868.969 154.828C867.081 155.609 865.128 156 863.109 156H836.352C833.357 156 830.85 155.544 828.832 154.633C826.879 153.656 825.316 152.387 824.145 150.824C823.038 149.262 822.257 147.471 821.801 145.453C821.41 143.37 821.312 141.221 821.508 139.008C823.591 138.747 825.642 138.194 827.66 137.348C829.678 136.501 831.469 135.297 833.031 133.734C834.659 132.107 835.993 130.089 837.035 127.68C838.142 125.271 838.826 122.374 839.086 118.988C839.346 116.319 839.086 113.812 838.305 111.469C837.523 109.125 836.482 106.911 835.18 104.828C833.878 102.745 832.38 100.759 830.688 98.8711C828.995 96.9831 827.335 95.1602 825.707 93.4023C824.014 91.1888 822.322 88.5195 820.629 85.3945C818.936 82.2695 817.732 78.4609 817.016 73.9688L786.156 156H762.035L803.051 47.8945Z" fill="#03C9D7"/>
</svg>
